<?xml version="1.0" encoding="iso-8859-1"?>
<!-- Generator: Adobe Illustrator 19.0.0, SVG Export Plug-In . SVG Version: 6.00 Build 0)  -->
<svg version="1.1" id="Layer_1" xmlns="http://www.w3.org/2000/svg" xmlns:xlink="http://www.w3.org/1999/xlink" x="0px" y="0px"
	 viewBox="0 0 480 480" style="enable-background:new 0 0 480 480;" xml:space="preserve">
<g>
	<g>
		<g id="XMLID_48_">
			<g>
				<path style="fill:#FFD248;" d="M140,210c19.302,0,35,15.703,35,35s-15.698,35-35,35s-35-15.703-35-35S120.698,210,140,210z"/>
				<polygon style="fill:#23A24D;" points="430,325 430,400 300.195,339.902 370,300 				"/>
				<polygon style="fill:#43B05C;" points="430,400 430,430 50,430 50,375 225,305 300.195,339.902 				"/>
				<path style="fill:#31C0D8;" d="M430,170v155l-60-25l-69.805,39.902L225,305L50,375V170H430z M175,245c0-19.297-15.698-35-35-35
					s-35,15.703-35,35s15.698,35,35,35S175,264.297,175,245z"/>
				<path style="fill:#E7ECED;" d="M261.201,61.201c-5.4,5.4-12.9,8.799-21.201,8.799s-15.801-3.398-21.201-8.799S210,48.301,210,40
					c0-16.602,13.398-30,30-30s30,13.398,30,30C270,48.301,266.602,55.801,261.201,61.201z"/>
				<polygon style="fill:#704324;" points="50,375 50,430 10,470 10,130 50,170 				"/>
				<polygon style="fill:#704324;" points="470,130 470,470 430,430 430,400 430,325 430,170 				"/>
				<polygon style="fill:#A26234;" points="470,470 10,470 50,430 430,430 				"/>
				<polygon style="fill:#A26234;" points="470,130 430,170 50,170 10,130 				"/>
			</g>
			<g>
				<path style="fill:#231F20;" d="M470,120H338.938l-64.323-59.965C278.122,54.008,280,47.147,280,40c0-22.056-17.944-40-40-40
					s-40,17.944-40,40c0,7.147,1.878,14.008,5.385,20.035L141.062,120H10c-5.523,0-10,4.478-10,10v340c0,5.522,4.477,10,10,10h460
					c5.523,0,10-4.478,10-10V130C480,124.478,475.523,120,470,120z M420,384.351l-98.021-45.382l48.714-27.847L420,331.666V384.351z
					 M420,310l-46.154-19.23c-2.863-1.193-6.117-0.99-8.809,0.549l-65.319,37.338L229.21,295.93c-2.5-1.161-5.366-1.236-7.924-0.215
					L60,360.229V180h360V310z M60,381.771l164.706-65.883l71.289,33.089L420,406.39V420H60V381.771z M425.857,160H54.143l-20-20
					h411.715L425.857,160z M40,174.143v251.715l-20,20V154.143L40,174.143z M54.143,440h371.715l20,20H34.143L54.143,440z
					 M440,425.857V174.143l20-20v291.715L440,425.857z M240,20c11.028,0,20,8.972,20,20c0,5.327-2.084,10.345-5.87,14.13
					C250.345,57.915,245.327,60,240,60s-10.345-2.085-14.13-5.87C222.084,50.345,220,45.327,220,40C220,28.972,228.972,20,240,20z
					 M219.415,74.298C225.572,78.014,232.636,80,240,80s14.428-1.986,20.585-5.702L309.608,120H170.392L219.415,74.298z"/>
				<path style="fill:#231F20;" d="M140,290c24.813,0,45-20.187,45-45s-20.187-45-45-45s-45,20.187-45,45S115.187,290,140,290z
					 M140,220c13.785,0,25,11.215,25,25s-11.215,25-25,25s-25-11.215-25-25S126.215,220,140,220z"/>
				<path style="fill:#231F20;" d="M240,220c5.514,0,10,4.486,10,10h20c0-5.514,4.486-10,10-10s10,4.486,10,10h20
					c0-16.542-13.458-30-30-30c-7.678,0-14.688,2.902-20,7.664c-5.312-4.762-12.322-7.664-20-7.664c-16.542,0-30,13.458-30,30h20
					C230,224.486,234.486,220,240,220z"/>
				<path style="fill:#231F20;" d="M300,270h20c0-5.514,4.486-10,10-10s10,4.486,10,10h20c0-5.514,4.486-10,10-10s10,4.486,10,10h20
					c0-16.542-13.458-30-30-30c-7.678,0-14.688,2.902-20,7.664c-5.312-4.762-12.322-7.664-20-7.664C313.458,240,300,253.458,300,270
					z"/>
			</g>
		</g>
	</g>
</g>
<g>
</g>
<g>
</g>
<g>
</g>
<g>
</g>
<g>
</g>
<g>
</g>
<g>
</g>
<g>
</g>
<g>
</g>
<g>
</g>
<g>
</g>
<g>
</g>
<g>
</g>
<g>
</g>
<g>
</g>
</svg>
